<?xml version="1.0" encoding="UTF-8"?>
<svg id="_2" xmlns="http://www.w3.org/2000/svg" version="1.1" viewBox="0 0 431.26 126.26">
  <!-- Generator: Adobe Illustrator 30.2.1, SVG Export Plug-In . SVG Version: 2.1.1 Build 1)  -->
  <defs>
    <style>
      .st0 {
        fill: #ba924a;
      }
    </style>
  </defs>
  <path class="st0" d="M244.09,78.24c-3.92.67-1.56-.04-6.34,1.16-1.24.31-2.56.44-3.75.85l-4.68,1.6c-5.15,1.76-2.36,4.35-7.61,3.17-.91-.21-1.47-.76-2.17-1.24-1.84-1.25-2.13-1.89-3.31-3.86-.49-.82-1.56-1.6-1.38-2.7.35-2.1-.5-2.03.56-2.83.44-.33,1.37-.95,1.52-1.46l1.58-5.37c.99-3.37-.23-4.26.45-6.49.22-.72.74-1.78,1.38-1.98.11-.03.45.22.54.15l.56-.53c1.62,2.23,2.4,2.39,4.16,4.56,2.23,2.75,3.07,6.32,1.99,9.77l6.69-1.25c.14-.31.28-1.43-.03-1.8l-4.71-5.57c2.13.65,3.03,3.15,5.3,2.25l.16-5.31.05-3.62c.03-2.21-.18-4.37-.29-6.66-.09-1.91-1.96-2.84-2.35-4.86l-.34-1.79c.45-.15.89-.74,1.03-1.24.54-.09,1.37-.18,1.94-.37l1.67-.56c3.85,1.07,6.17,2.08,9.19,4.86.59.54,1.09,1.61,1.48,2.3,1.04,1.8.62,3.75-.69,5.25-.25,1.32-.56,2.88-.64,4.25l-.58,10.77,5.14-.55,1.63-5.02-.31,4.78c.35.32,1.05.41,1.56.27.38-2.93.73-5.75.86-8.72.06-1.3-1.93-2.66-1.85-3.54.07-.71,1.71,0,1.77-1.21,1.09-.43,2.59-.2,3.6.48,2.15,1.46,2.51.92,4.87,2.97,1.64,1.42,4.03,5.03,3.38,6.68l-1.65,4.17c-.47,1.18-1.07,9.44-2.97,12.05-.67.92-1.13,1.62-1.6,2.7-.23.54-1.09.17-1.67-.13-.42-.22-1.26.79-1.62.99-2.5-1.24-1.3.14-3.84-1.87-.34-.67-.64-1.18-1.27-1.48,0-.23,0-1.36-.36-1.47-.61-.18-1.44-.32-2.12-.46l2.69-.15c-.51-.21-.95-.21-1.78-.27l1.2-.15c.52-.69.89-1.57.92-2.49-2.74.27-5.28.52-7.95.98h-.01Z"/>
  <path class="st0" d="M213.84,79.31l-1.54.75c.06.69-.88,1.92-1.75,2.06l-4.28.67c-2.16-.2-3.78-.84-5.14-2.38l-4.84-5.46c-.28,3.55,1.77,8.84-.67,11.35-1.06,1.09-2.58,1.67-4.08.77-1.32-.79-2.2-2.11-3.27-3.18l-1.66-1.66-2.73-2.65-2.27.9c-2.66,1.06-2.6-.74-3.94.56l.19,2.29c.08,1.03-.8,2.3-1.73,2.99-1.69,1.25-4.42-2.1-4.7-3.81l-.32-1.97c.36-1.32.67-2.63.82-3.91-1.35,1.19-2.55,2.15-3.89,3.17s-2.63,1.36-4.23,1.77c-1.08.28-2.16.85-3.33.66l-1.92-.32c3.55-2.49,6.03-5.29,8.49-8.79-1.59.44-2.64.81-3.93.01-1.52-.94-3.22-2.14-3.78-3.81-.29-.88.81-2.19,1.55-2.06.27.05.84.39,1.14.5l10-3.04c-.11-3.34-.53-1.51-1.21-3.99l-2.79.71-.05-.51-2.6.48c.47-1.26,1.44-1.33,2.21-1.99,2.13-1.82,4.09-3.76,6.06-5.75l1.09-1.09c-1.89-.72-3.48-1.79-4.57-3.47l-1.38-2.14c.02-.26.47-.97.77-1.17l2.07.58c1.29-.23,2.62-.42,3.86-.73l4.71-1.14-.12-2.83c0-.35-.72-.88-.89-1.2-.55-1.03-.5-2.52.08-3.59.28-.52,1.38-1.32,1.97-1.4,2.04.33,4.46,1.14,6.02,2.44,1.35,1.13,1.23,2.82.79,4.41.63,0,1.64-.27,2.05-.61,1.19-1,2.12.11,3.04.23,1.79.25,3.11.64,3.9,2.45.27.61,1.44.96,1.11,1.92-.25.73-.52,1.53-.94,1.89-.71.61-1.4.43-2.31.54-2.17.28-4.76.77-6.81,1.19-.21.04-.48.39-.44.52s.38.27.52.26c2.04-.15,3.85.13,5.81.54,3.14.67,4.86,1.32,6.61,4.08.52.82,1.16,2.35.18,3.01-.51.34-.86.6-1.31,1.08s-1.68-.1-2.33-.34l-3.48-1.31c-1.09-.41-2.56-.08-3.88-.49l2.16-1.25-4.56-2.72c-.08,2.42-.07,4.63-.02,6.85,0,.16-.86,2.89-1.78,3.24-2.24.85-4.06-.68-5.19-2.4-.42-.64-.78-.95-.97-1.67s-1.14-1.43-1.82-1.89l-3.52,2.16,1.8,1.11c2.34,1.44,1.66,2.67,2.66,2.77,1.52.15,2.47.76,3.25,2.03l.79-1.24c2.77.65,2.61.27,5.42-.6l2.11-.65c.1-3.79-1.72-2.38-.93-4.79l1.4-.4c1.04-.3,1.79.16,2.72.48,1.62.56,3.18,1.4,3.22,3.36l2.4-.74c.62-.19,1.57.45,2.16.66l1.82.66c1.48.54,2.66,1.81,2.4,3.55-.08.52-.71,1.51-1.17,1.79-1.52.93-4.01-.65-6.9.41,1.44,1.95,3.21,3.41,5.24,4.72l2.48,1.59,2.8,1.5c1.44.77,2.81,1.49,4.18,2.39.63.41,1.11.65,1.95,1.09h-.03ZM179.81,57.16l.12-1.49-1.47,1.12s1.35.37,1.35.37ZM181.55,72.67l.83,2.6c.77-.88,1.51-1.82,2.14-2.76l1.34-1.99c-1.87-.43-2.64-1.67-3.57-3.32l-1.41,1.69c-.39.09-3.95.62-3.39,1.42.07.1.29.31.43.38l2.88,1.37,1.66-1.9c-.14.98-.66,1.77-.91,2.51h0ZM187.63,79.67l2.18.41.23-5.87c-1.57,1.72-2.85,3-4.68,4.28.7.53,1.44.87,2.26,1.18h.01ZM177.63,80.27l2.95-2.82c-1.46-.21-2.29-.43-3.25-1.24-.08.64-.1,1.35,0,1.98l.31,2.07h0Z"/>
  <path class="st0" d="M340.87,60.88c-1.16,2.18-4.86,1.27-7.1,1.68l-.29,5.35,2.72-1.08-.54-2.59c-.06-.29.3-.91.52-1.06.25-.18.85.25,1.16.4,2.99,1.52,5.03,4.13,5.24,7.65.06.96-.1,2.52-.66,3.25-.65.85-1.98.51-2.73.13-.86-.43-1.23-1.18-1.63-2.16l-1.03-2.54-.68,1.18c-1.88,2.1-7.55,4.4-8.86,5.56-1.21,1.08-2.43,1.34-3.96.69-1.28-.54-2.17-1.28-2.66-2.67l-.47-1.33c-.14-.39-.17-.92,0-1.28l.37-.82c.26-.57,1.74.35,2.42.1,2.64-.99,3.88-1.15,6.46-2.16-.43-1.78.04-5.02-.38-5.68-.12-.19-.85-.02-.92.17-.09.5-.21,1.43-.44,1.96-.5,1.11-2.25-1.41-2.72-1.76-.79-.58-1.41-.86-1.9-1.78l-1.04-1.91c-1.21-2.22-1.67-4.89-1.38-7.46l.42-3.73c.19-1.64,3.52.31,4.02,2.15,2.17-2.09,1.72-1.27,4.56-2.47-.07-2.08.19-4.22-.36-6.24-.22-.82-1.33-1.92-.47-2.88.23-.26.72-.64,1.15-1.03,1.69.42,3.47,1.4,4.53,2.94.43.63.28,1.93.23,2.64l-.22,3.27c2-.05,1.8-1.33,3.99-.34,3.39,1.53,4.61,2.13,6.15,5.59.71,1.6-3.28,3.61-2.97,4.89,1.39-.74,4-3.11,5.03-4.18l3.38-3.49-2.31-1.93c-1.22.73-2.2,1.09-3.41,1.43l-.18-.83-1.28.78.33-1.28-.8.69,1.27-2.96c.26-.6.19-1.24.66-1.78l3.93-4.53c.77-.89-.16-1.62.25-2.02.14-.14.53-.21.89-.25l.75-.83,2.55,1.34c.94.5,1.46,1.37,1.81,2.34,1.12-.29,2.27-.54,3.34-1.06.66-.32,1.62-1.5,2.59-.92l2.84,1.69c.36.21.74,1.07,1.06,1.4.53.55.8,1.27.65,2.06-.28,1.5-2.33,1.32-3.6,2.82l-3.13,3.72,2.26,1.39c1.29.8,2.57,1.68,4.01,2.2,3.56,1.28,6.86,2.83,9.76,5.48l-1.22.25c.04.31.08.86,0,1.14-.09.34-.73.4-1.11.46l-3.12.5c-1.09.17-2.16.59-3.29,0l-2.68-1.42c-.1.48-.3,1.07-.65,1.44-.27.27-.92.33-1.41.4l-2.59.38c3.17,1.26,2.14.13,4.19,2.73l-.89,2-3.12.28c-.11.39-.14.95-.12,1.57l3.04-.24-.36-.94,1.31.53,1.23.22,3.33,1.18,1.31,1.71-.52,1.67-1.12.8c-.28-.08-.93-.37-1.25-.4-3.13-.29-3.9-.41-7,0l-.21,4.21c-.07,1.37-.54,2.97-1.14,4.2-.28.58-1.21.66-1.16,1.64.02.39-.64.82-.83,1.12-.54.8-.94,1.64-1.33,2.46-1.75-4.03-1.84-8.53-1.96-12.82-1.63.24-3.14.72-4.75,1.42-2.57-.87-2.46-.93-3.72-3.36l.22-1.72c.44-.71,1.38-.05,1.89-.21,1.31-.43,2.51-1.12,3.87-1.98-1.44-.36-2.58-1.11-2.85-2.6l.67-1.41c.31,0,1.05.19,1.36.13l3.23-.64c.17-.03.42-.43.42-.6-.03-.67-2.62.53-4.88-.51-.51-.23-2.11-2.28-2.15-2.13l.27-1.01c.23.03.84.22,1.15.16l5.66-1.15-.91-2.06-2,1.25c-1.56.97-3.24,1.46-5.06,1.76-.53.09-1.18.23-1.66.09-.68-.2-1.54-.14-1.76.42.14.23.71.9.55,1.2l-.06-.02ZM352.57,46.42l2.48-3.22c-.89.15-1.59.15-2.39.03l-2.06,2.06,1.97,1.13ZM334.79,52.18c-.23-.07-.87,0-.87.19l-.08,2.54c.52-.92.81-1.79.95-2.73h0ZM329.19,58.9l.14-5.53c-1.52.2-2.63-.34-4.13-1.03.07.57.22,1.26.45,1.84.83,2,1.01,3.88,1.31,6.04l2.23-1.32h0ZM358.59,56.87l-4.07-3.31-.71-.07c-.16-.02-.39.49-.37.59,1.64.51,3.01,1.17,3.68,2.88.54.03,1.08,0,1.48-.09h-.01ZM351.25,69.13c.12-.02.18-.78.05-.76-1.6.2-2.73.59-4.09,1.39l4.03-.63h.01Z"/>
  <path class="st0" d="M289.21,82.98c-.27.27-3.89,3.22-3.8,3.2-.84.24-2.18.03-2.83-.57-4.05-3.71-2.18-4.71-1.78-9.36l.36-4.11c.08-.9.32-2.24-.2-2.94l-.83-1.12c-3.82,2.54-2.98,2.49-7.37,3.82-.77.23-1.61.33-2.37.64-.59.24-1.02.12-1.42-.44l-2.6.47c2.99-2.05,5.95-3.67,8.47-6.17,1.34-1.33,2.67-2.5,3.9-4.05-2.24,1.1-4.52,1.27-6.21-.41-.68-.67-1.46-1.39-1.71-2.38-.12-.45.86-.73,1.24-.74,2.73-.08,5.27-.46,7.74-1.25.38,0,.79,0,1.17-.06l-.91-.16,2.51-1c-1.04-.32-2-.39-2.65-.98l-1.76-1.6.5-1.01c1.7-.02,3.09-.23,4.68-.49l4.05-.66-.08-1.2-3.68.82c-2.13.47-5.12.07-6.53-1.23l-2.06-1.9c.9-1.51,1.25-.21,4.79-1.03l2.33-.53c-2.71-2.15-3.53-4.39-1.95-7.57.45-.11,1.31.04,1.7.34l2.28,1.74c.35.15,1.29.15,1.7,0l5.48-1.85-2.92,2.85c-.43.42-1.1,1.12-1.2,1.65l-.35,2,3.23-.72c.44-.1,1.2-.65,1.5-.97l3.31-3.52c.44-.47.82-.95,1.14-1.61-.56-.34-1.18-.54-1.73-.69.64-.13,1.03-.43,1.15-1.08,3.57-1.06,3.89.2,5.09.56,1.77.54,3.13,1.9,3.22,3.87s-1.66,1.53-2.3,2.1c1.65.58,2.91.85,4.23,1.79.34.24,1.62,2.15.64,2.66-.46.24-1.05.6-1.42.83-3.55.08-7.02.05-10.69.5l.3.74c.19.48,3.69-.4,4.52-.71l2.96,1.03c.79.27,1.25,1.5,1.64,2.21l-.97,1.55c-2.67-.14-5.48-.05-8.11.41-.21.04-.27.72-.14.96l9.91-.7c-.16,0,1.72-1.03,1.53-.93.15-.08.47.29.65.37.81.35,1.62.68,2.46.95,3.03.96,3.65,3.61,2.86,4.27-.27.23-1.04.37-1.4.52-.21.08-.08.91-.3.95s-.72.02-.98-.06c-2.35-.69-4.53-1.17-7.06-1.14,1.74,1.1,3.38,2.37,5.29,3.25l6.77,3.1c4,1.83,1.39,1,4.67,2.8-.78.47-1.49,1.01-2.14,1.58-.97.85-2.34.84-3.48,1.09-5.27,1.17-7.42-1.31-10.83-4.65l-.48,1.38c-1.57,2.23-.74,3.37-2.94,6.29,1.34-.92,2.31-2.04,3.5-3.24,1.1.12,1.97,1.04,2.9,1.77.67.52,1.62,2.16.55,2.79-1.41.82-3.18,1.1-4.82,1.92,4.25,1.82,7.43,1.71,11.8,3.59-1.34,1.04-3.46,1.07-3.8,2.59-.38.16-1.08.85-1.53.97-1.1.31-2.72.27-3.86.04-3.08-.6-8.07-4.02-10.86-5.93l-1.33,1.46-2.32,2.33h-.02ZM282.14,57.27l4.76-.75c.11-.02.31-.07.39-.09s.05-.29-.01-.34-.35-.12-.46-.09l-5.82,1.3c.4.42.76.03,1.15-.04h-.01ZM296.29,62.46c.69-.25,1.38.71,2.19.71-1.04-1.02-2.13-2.43-3.55-3.17-1.24-.22-2.76.08-4.06.22l2.7,1.31.85,1.61,1.87-.67h0ZM288.89,63.92c-.96-.84-1.61-1.44-2.09-2.25-.01-.43-.03-.75-.21-.82-.14-.06-.67.03-.74.13.36,2.29-.67,2.51-1.86,3.93l4.9-.99h0ZM294.05,68.21c.19-.59.26-1.09.19-1.73-2.37.39-4.28.76-6.43,1.26-4.06.94-4.93-2.12-5.53-1.48l-.54.57,2.67.88c.47.16,1.11.85,1.51,1.23l4.97-1.31c1.11-.29,2.01.03,3.16.59h0ZM290.01,72.23l2.9-.4c.15-.02.46-.28.56-.39,1.56-1.71-7.29,1-7.13,1.49,1.36.01,2.35-.51,3.67-.69h0ZM298.5,75.2l-1.63-.53c-1.6,1.36-.86-.91-3.6.48l3.53,1.32s1.7-1.27,1.7-1.27ZM286.83,79.7l4.62-1.64-2.66-1.93c-.73-.1-1.97.1-2.77.2l-.26,2.58c-.02.2.12.64.27.73.11.07.64.12.81.06h0Z"/>
  <g>
    <path class="st0" d="M60.55,126.26h-6.5c-7.52-1-14.86-2.95-21.79-6.36-10.83-5.33-19.9-13.58-25.57-24.29-3.5-6.62-5.73-13.83-6.44-21.27-.09-.97-.08-2.77-.25-2.92v-5.52c.08-.25.1-.54.12-.95.6-9.45,3.32-18.65,7.86-26.96,4.27-7.82,9.85-14.71,16.7-20.42,3.99-3.39,8.33-6.28,13.04-8.78-.17,2.87.91,5.32,3.28,7.05l-6.22,3.71c-11.2,7.49-19.64,18.02-24.2,30.74-1.77,4.94-2.8,9.97-3.22,15.2-.75,9.27,1.17,18.39,5.53,26.58,3.59,6.75,8.62,12.61,14.67,17.3,8.5,6.58,18.84,11.45,28.95,14.98l3.93,1.37c.15.05.17.5.12.54h0Z"/>
    <path class="st0" d="M146.51,58.13v21.31c-3.26,15.96-12.18,29-26.19,37.6-8.28,5.09-17.47,7.99-26.95,9.22h-6.69c-.03-.27.14-.51.43-.61l6.45-2.23c5.19-1.79,10.09-4.13,14.94-6.73,9.75-5.23,18.7-12.3,24.49-21.86,3.08-5.1,5.32-10.57,6.41-16.46,1.35-7.34,1-14.79-.84-22.02-2.58-10.2-7.66-18.86-14.75-26.54-5.09-5.48-10.95-9.94-17.59-13.41,2.4-1.68,3.58-4.24,3.3-7.12,8.17,4.24,15.21,9.94,21.21,16.75,3.8,4.39,7.06,9.18,9.7,14.34,2.91,5.68,4.77,11.63,6.09,17.77h-.01Z"/>
    <path class="st0" d="M70.23,0c.86.39,1.22,1.11,1.22,2.11v4.33c0,1.05-.67,1.87-1.76,1.88-5.27.27-10.38,1.06-15.57,2.53.28-3.01-.68-5.79-3-7.73C56.58,1.36,62.14.56,67.72,0h2.51Z"/>
    <path class="st0" d="M79.17,0c5.78.66,11.51,1.55,17.15,3.51-2.26,1.79-3.31,4.36-3.17,7.15,0,.08-.03.33-.1.33s-.29-.01-.43-.05c-5.94-1.56-8.73-2.12-15.03-2.64-.9-.07-1.59-.79-1.59-1.74V1.84c0-.94.52-1.52,1.33-1.84,0,0,1.84,0,1.84,0Z"/>
    <path class="st0" d="M96.53,71.18c.79,10.34-3.69,19.77-12.92,24.63-2.1,1.1-4.27,1.75-6.56,2.19-.64,1.61-1.37,3.04-2.34,4.43-.21.29-.69.55-.99.55-.35,0-.87-.27-1.11-.6-.94-1.35-1.63-2.77-2.28-4.36-6.48-1.14-12.14-4.94-15.7-10.55-3.08-4.85-4.25-10.54-3.78-16.29-3.41,2.84-7.56,5.48-11.91,5.52-2.4-.02-4.67-1.01-6.02-2.98-1.11-1.61-1.11-3.73.12-5.27,5.88,1.32,12.44-.57,17.65-3.23-5.72,1.04-10.63,2.08-16.4,1.36-2.92-.37-5.65-1.4-7.87-3.32-2.08-1.79-3.54-4.1-4.13-6.77-.82-3.7.75-7.09,4.33-8.53,4.72-1.9,11.77.58,16.38,2.41,4.67,1.93,9.06,4.2,13.5,6.83,1.65-2,3.57-3.69,5.81-5.09-2.25-2.59-2.2-6.12-.05-8.62,1.09-1.31,2.43-2.19,4.05-2.97-1.65-3.17-3.83-5.68-7.63-6.12-.5-.06-1.05-.17-1.48-.36-.95-.4-1.4-1.35-1.23-2.29.16-.9.92-1.6,1.95-1.68.89-.07,1.74.21,2.58.56,1.86.98,3.38,2.34,4.7,3.99,1.22,1.6,2.18,3.3,2.98,5.21,3.66-1.06,7.47-1.06,11.1-.02,1.75-4.02,4.59-8.09,8.75-9.58.91-.2,1.84-.3,2.63.23s1.04,1.53.75,2.4c-.26.8-1.09,1.39-2.04,1.46-4.11.3-6.32,2.64-8.24,6.15,1.6.79,2.99,1.7,4.07,3.05,2.18,2.51,2.12,6.01-.08,8.57,2.22,1.42,4.16,3.06,5.84,5.14,4.39-2.62,8.83-4.9,13.52-6.88,4.3-1.65,9.89-3.63,14.48-2.95s7.3,4.46,6.24,9.11c-.97,4.26-4.18,7.66-8.27,9.16-3.34,1.22-8.68,1.4-12.08.84l-8.07-1.32c5.21,2.67,11.84,4.57,17.69,3.24,1.05,1.33,1.2,3.09.48,4.6s-1.98,2.51-3.51,3.1c-3.95,1.53-8.24-.4-11.61-2.49l-3.28-2.46h-.02ZM91.05,65.01c-.55-1.26-1.08-2.34-1.73-3.44-8.26,7.45-23.02,7.45-31.3,0-.66,1.16-1.19,2.23-1.7,3.41,6.83,5.64,16.28,7.28,24.78,5.05,3.65-.96,6.95-2.61,9.95-5h0ZM92.76,74.62c.04-1.85-.03-3.47-.41-5.17-11.05,8.26-26.3,8.26-37.37-.05-.34,1.77-.43,3.44-.36,5.18,10.8,8.59,27.27,8.56,38.14.04ZM89.19,85.8c1.05-1.66,1.92-3.28,2.42-5.19-4.5,2.72-9.26,4.35-14.41,4.84-7.61.72-14.87-.82-21.48-4.87.52,1.91,1.35,3.56,2.38,5.17,2.21,1.57,4.58,2.67,7.18,3.49,5.2,1.63,10.6,1.75,15.86.29,2.9-.81,5.54-1.97,8.05-3.72h0Z"/>
    <path class="st0" d="M59.77,115.27c1.58.41,2.38,2.08,2.04,3.54s-1.82,2.51-3.45,2.22c-10.92-1.91-21.18-6.69-29.64-13.86-1.67-1.42-3.24-2.83-4.63-4.48-1.01-1.2-.44-3.01.62-3.88,1.17-.96,2.9-.94,4.01.19,3.18,3.23,6.67,5.97,10.54,8.38,4.19,2.6,8.6,4.53,13.29,6.02,2.42.77,4.79,1.24,7.22,1.87Z"/>
    <path class="st0" d="M89.27,121.02c-1.84.33-3.31-.71-3.66-2.32s.63-3.16,2.34-3.51c11.85-2.4,22.39-7.65,30.92-16.28,1.1-1.11,2.85-1,3.95-.04,1.02.88,1.53,2.73.46,3.9-3.97,4.34-8.64,7.9-13.75,10.85-6.26,3.62-13.06,6.09-20.25,7.4h0Z"/>
    <path class="st0" d="M129.07,96.35c-.95,1.47-3,1.44-4.16.58-1.34-1-1.55-2.71-.63-4.12,4.26-6.56,6.61-14.2,6.83-22.03.03-1.01.17-1.81.87-2.42s1.61-.92,2.56-.74c1.5.28,2.42,1.47,2.36,3.02-.35,9.22-2.76,17.91-7.83,25.71h0Z"/>
    <path class="st0" d="M18.38,96.35c-5.04-7.7-7.61-16.82-7.81-25.96-.03-1.4.94-2.47,2.23-2.74.96-.2,1.87.06,2.58.66.71.6.92,1.46.95,2.47.21,7.96,2.69,15.61,6.97,22.3.86,1.35.41,3.11-.89,3.95-1.18.76-3.09.75-4.03-.69h0Z"/>
    <circle class="st0" cx="45.99" cy="9.29" r="5.04"/>
    <circle class="st0" cx="101.26" cy="10.24" r="5.04"/>
  </g>
  <path class="st0" d="M430.96,59.97c-1.05-2.83-3.04-2.17-5.71-3.92-3.35.95-.75,1.01-4.97.86,1.34-2.33,1.48-5.09,1.44-7.67-.02-1.31-.36-2.78.32-3.95.49-.84,1.05-1.71,1.43-2.57l-1.11-1.87c-1.16-1.96-4.57-3.27-6.72-3.86-2.44-.67-1.37.8-4.2,1.25-3.72.59-5.8.42-8.06,3.49-1.53-.53-2.05-2.38-3.85-1.52.04.73.21,1.62.13,2.33l-.52,4.15c-.06.49-.03.98-.2,1.43-.26.68-.16,1.26-.15,1.93,0,.6.04,1.06.24,1.65l.78,2.23c.59,1.68,1.56,2.5,3.55,2.93-1.66,1.12-3.22,1.66-4.83,2.43-1.7.82-3.23,1.47-5.26,1.31-.37-.03-1.09.48-1.16.83-.22,1.12.78,1.22,1.38,2.54l-2.29,1.79.1-2.77c.13-3.76.69-3.39,2-4.43l2.64-2.08c.14-.11.48-.42.43-.58l-.25-.71-.41-1.71c-.14-.61-.59-1.11-1.15-1.41,0-.23-.13-.81-.4-.92l-2.2-.92c-.71-2.74,1.42-4.02-.85-6.61-1.35-1.54-3.29-2.88-5.36-3.31l-1.73.93c-1.18.63-.04,2.13.16,2.96.56,2.36.6,4.69.46,7.08-.06.96-1.42,1.71-2.19,2.06l-2.4,1.08c-.8.36-1.67.4-2.57.14l-.67.72-.61.66c-.26.28.55,1.64,1.02,2.69.93,2.1,4.42,4.13,6.9,4.37l-.17,4.68c-.03.8-.5,1.37-1.1,1.96l1.22-.61.35,1.44c-.95.77-2.87,2.27-4.25,2.5l1.54-2.42-3.61,2.99c-.43.36-1.04,1.27-1.29,1.8-.41.85.19,1.78.48,2.58.75,2.05,2.73,3.34,4.75,3.92,1.44.41,2.09-.59,2.93-1.48,2.13-2.26,4.29-4.38,6.25-6.84.73-.91,1.41-1.95,2.63-1.8l-1.63,1.66c1.51-.38,2.33-.55,3.6-.6,4.8-.2,4.93-3.95,7.39-3.16-1.78,2.33-3.57,4.29-5.56,6.3-.45.45-.67.94-.95,1.62l1.43-.23,2.92-.3c1.14-.12,2.07-1.12,3.1-1.76.38.15.81.83.9,1.3l-2.43,2.67c-1.9,2.09-4.08,3.48-6.44,5.21l3.19-.49c0,.07-.13.49-.02.49.08,0,.42.02.52,0l3.72-1.02c2.03-.56,2.91-1.96,4.34-2.46.24-.09.76.58.74.87.16.12.3.27.43.48,1.02,1.69,2.6,2.9,4.17,4.06.64.47,1.35.93,2.11,1.2h.72c.61-.23,1.17-.36,1.83-.54.24-.06.5-.18.74-.21.14-.02.27,0,.39.07.03-.01.07-.02.1-.03,1.18-.84,2.2-2.04,3.15-3.02.19-.19.37-.39.56-.59.02-.03.05-.07.08-.1.71-1,1.16-1.56,1.86-2.48l.18-.23,1.77-3.84c.37-.8.81-1.84,1.18-2.54,2.38-1.74-.19-5.35-1.68-6.66-.88-.77-1.69-1.74-2.73-2.28-.57-.3-1.47-.87-2.06-.9l-3.05-.14c-3.57-.17-7.11.06-10.76.66.04-1.13.82-1.3,1.66-1.41,2.48-.32,4.89-.72,7.39-.71l4.43.03c.76,0,3.55.32,4.54.56,1.18.28,2.74,1.15,3.88.38.39-.56.83-1.11,1.42-1.54.55-.39.17-1.52-.02-2.03v-.04ZM408.68,42.8l4.25-.67.09,3.63c-3.15-1.85-4.57-1.13-7.58.06l-.96-2.99c1.52.47,2.82.2,4.21-.02h-.01ZM410.73,49.64l2.19-.74-.26,2.23c-2.19.53-4.02,1.06-6.36,1.11-.19-.8,4.02-2.46,4.42-2.6h0ZM405.88,51.09c-.24-.52-.32-.98-.3-1.5.85-.13,1.3-.18,2.17-.21l-1.87,1.72h0ZM392.46,71.65c2.22-3.63,1.03-3.62,2.55-6.51,2.93.96,1.34.76,4.34.24-2.06,2.38-4.14,4.57-6.89,6.27h0ZM416.34,71.89c.87-.4,1.09-1.28.83-2.16l-.64-1.42,3.19.58c.06,1.24-.24,2.07-.67,3.14-1.2,2.98-2.78,6.48-5.88,8.22-1.12-.31-2.01-.67-3.07-1.27l2.36-2.35c1.45-1.45,2.59-3.16,3.88-4.75h0ZM408.98,70.88c.69-.52.9-.93.39-1.95.42-.13.94-.11,1.43.04-.74,1.57-1.65,2.66-2.69,3.93l-1.88,2.3c-.16.19-.75.54-.87.38l-.52-.7c-.12-.16.38-.54.57-.67,2.4-1.72,1.83-2.01,3.58-3.34h-.01ZM399,59.93c1.4-1.58,3.54-1.81,5.5-2.35,2.88-.8,5.55-1.92,8.65-1.85l1.24,1.68c-5.23.5-10.03,1.32-15.39,2.53h0Z"/>
</svg>