<?xml version="1.0" encoding="UTF-8"?>
<svg id="_レイヤー_1" xmlns="http://www.w3.org/2000/svg" version="1.1" viewBox="0 0 68.44 15.3">
  <!-- Generator: Adobe Illustrator 30.2.1, SVG Export Plug-In . SVG Version: 2.1.1 Build 1)  -->
  <defs>
    <style>
      .st0 {
        fill: #bb4d00;
      }
    </style>
  </defs>
  <g>
    <path class="st0" d="M11.08,13.29c-.11.06-.35.05-.49.09-.17.06-.28.22-.43.29-.17.09-.4.17-.49.35,0,.08.05.11.11.15l.02.03c-.15-.02-.39-.11-.52-.06-.15.05-.28.11-.43.17-.14.05-.29.08-.43.12-.15.05-.26.18-.42.23-.08.03-.15.03-.23.03-.22.02-.48.09-.68.15-.17.06-.32.32-.42.34-.15.02-.32-.05-.48-.03-.17.02-.29-.15-.48-.14s-.32.19-.46.19-.31-.08-.46-.11c-.17-.03-.32.06-.49.02-.14-.03-.22-.29-.37-.35-.26-.09-.57-.2-.82-.32l.02-.05c-.03-.11-.09-.03-.15.02-.52-.52-.17-.35-.2-.86,0-.11-.25-.28-.31-.39-.09-.17-.12-.2-.26-.34l-.03-.03-.22-.8c-.08.06-.19.59-.25.63-.11.09.06.42-.02.54-.46.69-.32.31-.32,1.13-.02,0-.03,0-.05.02-.25.2-.45-.12-.91.12-.05,0-.08.05-.09.09C.32,14.4.01,14.2,0,14.04c-.02-.15.26-.32.32-.49s-.02-.45.08-.59c.03-.06.09-.08.14-.11.25-.14.2-.26.25-.51.02-.11.05-.11-.06-.15.09-.12.26-.17.32-.32.06-.15,0-.32.05-.46s.2-.25.26-.4c.05-.11.14-.52.14-.63,0-.09-.02-.26.02-.34.06-.15.15-.31.22-.46.06-.15.05-.34.09-.49.05-.12.34-.22.42-.39.03-.08.05-.17.06-.25.03-.17.14-.59.22-.74.06-.12.29-.25.39-.4,0-.19-.09-.31-.09-.48.05-.12.14-.25.2-.37s.09-.26.15-.39c.12-.2.39-.28.48-.49,0-.09-.03-.06-.08-.11-.03,0-.09-.03-.11-.06.09-.14.29-.17.37-.32.09-.19.02-.37.11-.54.09-.15.22-.29.31-.45.08-.12.26-.14.35-.32.08-.17,0-.35.08-.48.09-.15.29-.19.37-.32.08-.14.02-.37.08-.48.08-.14.12-.31.22-.43.05-.06.11-.12.17-.19.15-.17.31-.35.45-.54.09-.12.19-.28.29-.39.11-.11.23-.22.35-.31.12-.11.32-.12.43-.23.06-.06.03-.12.06-.15.05.08.08.15.11.23l.06-.06c.11-.11.14-.09.26-.15C7.65.23,7.99,0,8.06,0,8.2,0,8.35.15,8.49.2c.22.08.37-.05.59.09.12.08.28.17.39.28s.26.43.34.48c.05.31.09.63.15.94.03.15.02.32.03.48s-.08.31-.06.48c.02.17.23.31.23.48s-.11.31-.11.48-.02.32-.03.49c-.02.15.02.32.02.48,0,.37-.19.63-.26.94-.05.15,0,.34,0,.49,0,.05-.14.4-.17.46-.06.15-.2.26-.26.42-.05.12.02.31.02.43,0,.03-.02.08-.02.11-.09.14-.28.23-.35.37-.07.14-.26.2-.37.32s-.14.29-.25.42c-.12.14-.11.4-.2.49-.12.12-.35.03-.54.22,0,.03.03.05.05.08-.12.06-.29.02-.42.06-.15.05-.31.26-.45.26-.11,0-.69-.17-.82-.22l-.15-.06c-.23-.09-.28-.22-.59-.32-.08-.03-.19-.11-.23,0-.12-.11-.28-.23-.42-.32-.15-.11-.28-.23-.43-.32-.22-.14-.32-.05-.51-.28l-.03.09s-.19.03-.22.14c-.05.12.12.37.09.51s.05.4-.05.49v.03c-.06.11-.17.18-.19.32-.02.14.09.28.08.43,0,.14-.02.28-.02.42,0,.2-.22.46-.17.6.08.17.28.29.28.49,0,.46-.02.45.17.86.08.17.26.17.35.31.03.05.05.15.05.2.03.35.22.4.49.59.19,0,.34-.09.51-.08.17.02.23.22.45.25.32.05.63,0,.96-.03.17-.02.32,0,.49-.02.17-.02.32-.05.48-.08.34-.06.65-.11.97-.2.15-.05.26-.29.39-.34.14-.05.34.06.51-.01.15-.06.31-.12.45-.22.12-.08.34-.08.48-.15.17-.09.2-.31.32-.4.2-.14.73-.52.94-.26-.11.22.15.51.06.62-.06.15-.26.23-.4.31h-.03,0ZM8.72,3.26c.03-.06.2-.23.12-.31-.05-.46-.51-.8-.54-1.08.05-.05.11-.09.11-.17,0-.12-.15-.49-.29-.54-.25-.08-.96.37-1.17.54-.11.09-.28.09-.39.2-.08.29-.11.48-.26.76-.05.09-.08.19-.14.28-.11.14-.25.25-.34.39-.09.15-.12.32-.2.49-.05.09-.26.54-.09.6l.05.05c-.11.11-.23.15-.32.28-.08.12-.22.25-.28.39-.06.15-.14.28-.2.43-.06.15,0,.37-.05.48-.06.14-.11.28-.17.42s-.12.28-.2.42c-.06.14-.31.37-.34.48.14.15.42.05.56.17.11.09.17.23.28.32.12.11.12.28.37.49.09.08.15.17.25.23.14.09.32.08.48.14s.31.22.48.2.25-.2.39-.26c.05-.03.12-.03.17-.05.23-.06.2-.06.4-.22.09-.06.17-.12.23-.22.09-.12.14-.28.22-.4.11-.14.06-.32.17-.46s.29-.23.42-.35c-.17-.32-.09-.4.06-.69.08-.15.05-.34.14-.49.12-.22.15-.37.15-.62.11,0,.29-.06.08-.12.15-.32.12-.39.05-.73-.03-.12-.09-.25-.11-.37-.03-.15.28-.23.02-.49.03,0,.09,0,.11-.06,0-.03-.15-.11-.19-.11,0,0-.03-.02-.03-.02Z"/>
    <path class="st0" d="M21.55,10.46c-.15.17-.29.36-.46.49-.48-.11-.51.59-.79.54-.48.26-.99.4-1.42.76l-.12-.12-1.56.76c-.11.05-.2.14-.31.2-.43.25-.91.43-1.39.59l-.19.06c.32.79-.85.54-1.27.77-.25-.03-.51-.02-.76.02-.28.03-.51.05-.79-.02h-.03c-.69.29-.96-.45-1.33-.96-.25-.32-.83-1.28-.46-1.81.19-.26.29-.55.29-.94,0-.14-.02-.26-.02-.4.2,0,.54.11.54-.23,0-.11-.11-.15-.12-.22.22-.37.49-.39.39-.89.48-.83,1.37-1.27,2.05-1.91.79.31.82-.85,1.4-.42l.03.03c1.06-1.08,2.42.54,1.74.83.12.11.17.22.17.39,0,.14-.05.28-.12.39-.19.25-.31.49-.43.77-.2.45-.42.91-.85,1.17-.74-.18-.34.96-.88.54-.36-.28-.37-.29-.03-.03l-.03.03c-.15.15-.2.42-.37.51-.19-.06-.39-.09-.57-.14,0,1.27-1.6.74-2.1,1.77.42.45,1.27-.05,1.73.29h.03c.97-.12,1.77-.76,2.73-.91.09.15.29.15.45.12l.02-.03c.05-.14.08-.25.15-.37.31-.46.82-.43,1.34-.51h.03l.02-.05c.15-.48.52-.28.86-.48.35.12.57-.15.79-.37l.12.14.05-.05c.59-.59.51-.48,1.2-.93.28-.18.56-.35.82-.57.09.05.08.17.08.26-.02.05-.03.14,0,.18-.37.39-.29.34-.65.73,0,0,.02.02.02.02ZM15.92,7.83c-1.25-.69-1.2,1.11-2.42.77-.05.31-.11.63-.12.94-.69.26-.68.92-1.05,1.45l.06.08c.08-.05.2.11.25.15.43-.66,1.6-.76,1.99-1.47.65-.18.91-.82,1.13-1.39.05-.12.2-.42.22-.51-.02-.02-.03-.02-.05-.03h-.01Z"/>
    <path class="st0" d="M29.6,10.19c-1.19.54-1.97.46-3.38.4-.37.14-.22.57-.25.86-.17-.02-.26.15-.37.26.03.85-.62.71-.94,1.36-.08.12-.11.23-.12.37-.14.57-.96.06-.99.74-.86.23-1.65,1.31-2.61.97-.11-.03-.31-.14-.39-.22-.03-.03-.15-.18-.17-.23-.4-.66-.35-1.53-.34-2.27.11.05.19-.06.25-.12l-.12-.37c.11.03.19-.05.25-.12-.6-.34.12-.68.14-1.13.03-.96.4-1.71.62-2.62.69-.08,1.06-1.36,1.87-.62.17.97-.8,1.51-.62,2.5-.77.32-.89,1.03-.97,1.77-.03.23-.05.49-.15.71.23.57-.49,1.1.12,1.5,1.31-.38,2.21-1.14,2.99-2.24.88-1.23,1.56-2.42,1.25-4,.39-.06.63-.86,1-.25.62.28-.19.77.25,1.13-.14.08-.32.62-.31.76.35.63.93-.2,1.37.25,1.02-.11,1.51-.26,2.5-.52.26-.31.62-.39.99-.49-.17.83-1.06,1.48-1.87,1.62Z"/>
    <path class="st0" d="M35.63,12.9c-.94,1-.96.73-2.07,1.51l-.11.02c-.12.6-.68,0-.91.59-.35.09-.54.05-.91.05-.12,0-.34-.03-.46,0-.17.05-.39.42-.56.11-.49.14-.8-.34-1.1-.66-.09-.12-.22-.22-.32-.32-.43-.45-.39-1.42-.23-1.97.35-.37.22-.94.56-1.33-.02-.53.45-.86.77-1.2.34,0,.66-.08.77.32.29,1.06-1.14,1.2-.66,2.21-.43,0-.17.54-.54.66.22.26-.06,1.37.65,1.09.26.22.68.08.99.11.56-.37.74.12,1.3-.08.19-.68.86-.05.97-.71.31-.4.97.03,1.14-.74.69-.54.4-.39,1.16-.85.05.88-.45.54-.43,1.2h-.01ZM32.5,6.38c-.29-.49-.96-.76-.88-1.42l.76-.88c.48.15.51.52.77.88-.71.26.06,1.25-.65,1.42Z"/>
    <path class="st0" d="M45.5,10.46c-.15.17-.29.36-.46.49-.48-.11-.51.59-.79.54-.48.26-.99.4-1.42.76l-.12-.12-1.56.76c-.11.05-.2.14-.31.2-.43.25-.91.43-1.39.59l-.18.06c.32.79-.85.54-1.27.77-.25-.03-.51-.02-.76.02-.28.03-.51.05-.79-.02h-.03c-.69.29-.96-.45-1.33-.96-.25-.32-.83-1.28-.46-1.81.19-.26.29-.55.29-.94,0-.14-.02-.26-.02-.4.2,0,.54.11.54-.23,0-.11-.11-.15-.12-.22.22-.37.49-.39.39-.89.48-.83,1.37-1.27,2.05-1.91.79.31.82-.85,1.4-.42.39.29.4.3.03.03,1.06-1.08,2.42.54,1.74.83.12.11.17.22.17.39,0,.14-.05.28-.12.39-.19.25-.31.49-.43.77-.2.45-.42.91-.85,1.17-.74-.18-.34.96-.88.54l-.03-.03-.03.03c-.15.15-.2.42-.37.51-.19-.06-.39-.09-.57-.14,0,1.27-1.6.74-2.1,1.77.42.45,1.26-.05,1.73.29h.03c.97-.12,1.77-.76,2.73-.91.09.15.29.15.45.12l.02-.03c.05-.14.08-.25.15-.37.31-.46.82-.43,1.34-.51h.03l.02-.05c.15-.48.52-.28.86-.48.35.12.57-.15.79-.37l.12.14.05-.05c.59-.59.51-.48,1.2-.93.28-.18.55-.35.82-.57.09.05.08.17.08.26-.02.05-.03.14,0,.18-.37.39-.29.34-.65.73v.02h0ZM39.87,7.83c-1.25-.69-1.2,1.11-2.42.77-.05.31-.11.63-.12.94-.69.26-.68.92-1.05,1.45l.06.08c.08-.05.2.11.25.15.43-.66,1.6-.76,1.99-1.47.65-.18.91-.82,1.13-1.39.05-.12.2-.42.22-.51-.02-.02-.03-.02-.05-.03h-.01Z"/>
    <path class="st0" d="M58.57,10.79c-.43-.06-.49.71-.63.97-.8,1.54-2.53,2.81-4.13,3.5-.37,0-.85.05-1.14-.25-.28.03-.68-.06-.89-.28-.17-.26-.34-.45-.56-.68-.29-.29-.56-.54-.69-.94-.15-.46-.28-.94-.46-1.4-.71.89-1.57,1.08-2.04,2.27l-.02.03c-1.19,0-1.63,1.54-2.78.76h-.51v-.03c-.76-1.48-1.4-3.33-.79-4.97.14-.34.32-.63.52-.93.13-.2.14-.21.02-.03.12.09.28-.15.34-.22v-.51c.14-.06.46.06.49-.09.02-.02-.02-.08-.02-.11,0-.46.63-.59.8-.8.15,0,.29-.02.42.09.25.22.14.76.28,1.06,0,.56-.62.68-.76,1.16-.23.28-.45.57-.71.83.45.36-.54.51-.02.73-.11.39-.71.66-.4,1.11l.03.02c-.14.18.18,1.22.23,1.48.32.52,1.02.32,1.02.05l.09-.05c.05.14.14.11.23.05.09-.05.12-.06.22-.08.73-.15,1.64-1.13,1.82-1.82v-.03h.03c.8-.31.91-1.33,1.71-1.48.12-.31.52-.51.52-.82,0-.08-.05-.23-.05-.28.18-.15,1.08-.86,1.17-1.05l.03.03c.43.43.25.91.14,1.44-.11.18-.22.34-.37.49-.14.14-.26.29-.35.48.12.6-.37,1.19.02,1.74-.37.22.05.45.09.71.57.74,1.56.71,2.39.71h.42c1.3,0,1.34-1.4,2.3-1.96,0-.65.73-.49.49-1.11.48-.19.6-.97.88-1.36-.12-.45.25-.79-.23-1.17l-.02-.03c-.22-.46.42-.63.37-.94,1.23,0,.94.91.97,1.79.03.68-.49,1.22-.49,1.91h.02Z"/>
  </g>
  <path class="st0" d="M67.95,5.29l-.35.35.12.12c-.77.22-.45,1.51-1.22,1.71-.16.61-.53,1.12-.88,1.61-.12.14-.26.29-.33.45-.14.24-.22.47-.37.71-.18.26-.41.49-.59.77-.08.12-.16.26-.24.37-.31.45-.59.77-.75,1.32-.79.51-.88,1.59-1.57,1.95-.39-.27-.2-.83-.25-1.22.75-.28.41-1.22.81-1.73.1-.12.18-.14.29-.22.69-.47,1-1.95,1.45-2.67l.49-.35-.12-.14c.61-.61.71-1.55,1.57-1.95-.08-1.16.73-1.81,1.45-2.56-.02-.26.04-.45.26-.61.28.08.71-.2.73.26.02.57-.49,1.16-.49,1.83h-.01Z"/>
</svg>